<svg width="47" height="76" viewBox="0 0 47 76" fill="none" xmlns="http://www.w3.org/2000/svg">
<path d="M35.0491 71.5237C35.0491 71.5237 26.6824 75.7071 18.2111 74.0703C15.0414 73.4601 11.8568 72.034 9.09095 69.2682C9.09095 69.2682 11.7417 51.5119 16.7089 41.1346C17.3688 39.7561 18.0701 38.5077 18.8127 37.4484L21.902 37.6871L28.1456 38.1712C28.1456 39.0397 28.2564 40.7394 28.4842 42.9559C29.257 50.5369 31.3804 64.188 35.0491 71.5237Z" fill="#F9CE55"/>
<path d="M18.2111 74.0703C15.0414 73.4601 11.8568 72.034 9.09095 69.2682C9.09095 69.2682 12.4928 46.4773 18.8125 37.4484L21.9018 37.6871L22.7961 38.5707C20.4842 43.3186 15.0698 61.6914 18.2111 74.0703Z" fill="#E2A11E"/>
<path d="M38.7487 8.51645V24.9592C38.7487 32.4945 32.6374 38.6058 25.0997 38.6058C23.0807 38.6058 21.1661 38.1672 19.4422 37.3813V37.3791C15.2718 35.4773 12.226 31.537 11.5811 26.8304C10.9755 26.6177 10.4066 26.2702 9.92033 25.784C8.2009 24.0668 8.2009 21.2792 9.92033 19.562C11.6376 17.8405 14.4272 17.8405 16.1466 19.562L17.2929 12.9905L18.0743 8.51611L38.7487 8.51645Z" fill="#B37854"/>
<path d="M19.4424 37.3793C15.272 35.4776 12.2262 31.5373 11.5813 26.8306C10.9757 26.6179 10.4068 26.2704 9.92051 25.7843C8.20108 24.067 8.20108 21.2795 9.92051 19.5623C11.6377 17.8408 14.4273 17.8408 16.1468 19.5623L17.2931 12.9907L20.886 13.7202C19.3749 16.3319 12.9946 25.8646 19.4424 37.3793Z" fill="#946032"/>
<path d="M45.129 1.86247C45.129 8.41226 39.8188 13.7203 33.2713 13.7203H20.8859V14.821C20.8859 17.4392 18.7627 19.5603 16.1446 19.5603C14.8768 18.2923 13.0248 17.9603 11.4532 18.5639V13.7201C11.4532 7.17251 16.7634 1.8623 23.311 1.8623L45.129 1.86247Z" fill="#50515B"/>
<path d="M32.9888 1.86255H23.3108C16.7632 1.86255 11.453 7.17276 11.453 13.7203V18.5638C13.0248 17.9602 14.8766 18.2922 16.1444 19.5602C18.7625 19.5602 20.8857 17.4392 20.8857 14.8209V13.7202H21.1307C21.1311 7.17242 26.4411 1.86255 32.9888 1.86255Z" fill="#393A42"/>
<path d="M28.3966 21.7702V19.5128C28.3966 18.7971 27.8164 18.2168 27.1006 18.2168C26.3847 18.2168 25.8046 18.7971 25.8046 19.5128V21.7702C25.8046 22.4859 26.3847 23.0662 27.1006 23.0662C27.8164 23.0662 28.3966 22.4859 28.3966 21.7702Z" fill="black"/>
<path d="M31.6737 19.5128V21.7702C31.6737 22.4859 32.2538 23.0662 32.9696 23.0662C33.6855 23.0662 34.2656 22.4859 34.2656 21.7702V19.5128C34.2656 18.7971 33.6855 18.2168 32.9696 18.2168C32.2536 18.217 31.6737 18.7971 31.6737 19.5128Z" fill="black"/>
<path d="M20.8405 28.7268C20.8023 29.4415 21.3508 30.0516 22.0656 30.0899C24.181 30.2027 25.7052 31.0504 26.5962 32.6093C26.8355 33.028 27.2727 33.2625 27.7226 33.2625C27.9407 33.2625 28.1617 33.2074 28.3646 33.0914C28.986 32.7362 29.2018 31.9446 28.8467 31.3232C27.5096 28.9835 25.2127 27.662 22.2039 27.5016C21.4904 27.4621 20.8786 28.0119 20.8405 28.7268Z" fill="black"/>
<path d="M45.1282 0.567383H23.3113C16.0586 0.567383 10.1582 6.46773 10.1582 13.7203V14.8248C10.1582 15.5405 10.7383 16.1208 11.4542 16.1208C12.1701 16.1208 12.7502 15.5405 12.7502 14.8248V13.7203C12.7502 7.89693 17.4879 3.15919 23.3115 3.15919H43.7535C43.1127 8.37356 38.6564 12.4243 33.2716 12.4243H20.886C20.1702 12.4243 19.59 13.0046 19.59 13.7203V14.8202C19.59 16.5636 18.2878 18.0089 16.605 18.2341C15.037 16.9723 12.8957 16.6214 10.9919 17.3527C10.2473 17.6366 9.57862 18.0716 9.00514 18.6451C7.92852 19.7206 7.33533 21.151 7.3355 22.6733C7.3355 24.1954 7.92852 25.6257 9.00446 26.7004C9.42519 27.121 9.89774 27.4674 10.4162 27.7357C11.7308 34.7219 17.9168 39.9018 25.1002 39.9018C33.3406 39.9018 40.0448 33.1985 40.0448 24.9591V16.7201C40.0448 16.0044 39.4647 15.4241 38.7488 15.4241C38.0329 15.4241 37.4528 16.0044 37.4528 16.7201V24.9591C37.4528 31.7693 31.9115 37.31 25.1001 37.31C18.9579 37.31 13.6982 32.729 12.8654 26.6545C12.7995 26.173 12.4695 25.7689 12.0112 25.6078C11.5676 25.452 11.1725 25.2029 10.8366 24.8671C10.2502 24.2814 9.92713 23.5023 9.92713 22.6733C9.92696 21.8441 10.2502 21.0648 10.8372 20.4786C11.1514 20.1642 11.514 19.9274 11.9181 19.7734C13.0623 19.334 14.3622 19.6098 15.2285 20.4765C15.2346 20.4827 15.2428 20.4905 15.2489 20.4964C15.5152 20.7525 15.8676 20.8736 16.2101 20.8561C19.4437 20.8225 22.0756 18.2331 22.1788 15.0163H33.2716C40.5243 15.0163 46.4245 9.11595 46.4245 1.86337C46.4242 1.14766 45.8441 0.567383 45.1282 0.567383Z" fill="black"/>
<path d="M11.7142 51.1143C11.0298 53.5092 10.3717 56.1212 9.74261 58.9428C9.58696 59.6413 10.0271 60.3339 10.7254 60.4895C10.8204 60.5108 10.9154 60.5208 11.0087 60.5208C11.6026 60.5208 12.1378 60.1103 12.2722 59.5066C13.9064 52.1763 15.8068 46.0974 17.7685 41.927C18.0732 41.2794 17.795 40.5073 17.1473 40.2028C16.4994 39.8981 15.7276 40.1761 15.4231 40.8239C14.8168 42.1129 14.2243 43.5482 13.6465 45.1234C12.7895 45.9298 9.9025 48.7828 6.99175 53.2184C3.84532 58.014 0.0941391 65.6339 0.0941391 74.7036C0.0941391 75.4193 0.67425 75.9996 1.39013 75.9996C2.10601 75.9996 2.68612 75.4193 2.68612 74.7036C2.68612 66.3031 6.18327 59.1913 9.11696 54.7044C10.0019 53.351 10.8904 52.1483 11.7142 51.1143Z" fill="black"/>
<path d="M30.0105 44.9829C29.9228 44.2413 29.8424 43.5168 29.7712 42.8183C29.6987 42.1061 29.0643 41.5867 28.3505 41.6604C27.6384 41.733 27.1201 42.369 27.1928 43.0811C27.4197 45.3061 28.0897 51.1741 29.4103 57.5892C30.5503 63.1276 31.8606 67.5863 33.3119 70.8716C29.6851 72.3428 18.3267 76.0623 10.4763 68.8028C10.6386 67.7972 10.9908 65.7113 11.521 63.0632C11.6615 62.3613 11.2065 61.6787 10.5047 61.5382C9.80327 61.3978 9.12002 61.8527 8.97949 62.5544C8.21553 66.3704 7.82556 68.9683 7.80958 69.077C7.74892 69.4833 7.88452 69.8942 8.17491 70.1846C11.8452 73.8549 16.6939 75.7456 22.3469 75.7454C23.5468 75.7454 24.7837 75.6603 26.0525 75.4887C31.424 74.7626 35.4598 72.7676 35.6291 72.6831C35.9365 72.5293 36.1705 72.2598 36.2792 71.9339C36.388 71.6079 36.3625 71.2519 36.2089 70.9445C33.7329 65.9926 31.8635 57.6556 30.7014 50.0691C31.5552 51.2919 32.5365 52.8234 33.5131 54.621C35.9581 59.1219 38.8727 66.2596 38.8727 74.704C38.8727 75.4197 39.4528 76 40.1687 76C40.8846 76 41.4647 75.4197 41.4647 74.704C41.4647 65.6812 38.3572 58.0894 35.7504 53.3094C32.9605 48.1947 30.1925 45.1786 30.0105 44.9829Z" fill="black"/>
</svg>
