<svg width="108" height="158" viewBox="0 0 108 158" fill="none" xmlns="http://www.w3.org/2000/svg">
<g clip-path="url(#clip0)">
<path d="M2.3625 38.1797L2.34984 38.1713C2.34773 38.1734 2.34773 38.1776 2.34773 38.1797C0.820547 43.181 0 48.4924 0 54C0 59.5076 0.820547 64.819 2.34773 69.8203C2.34773 69.8245 2.34773 69.8266 2.34984 69.8309L23.4204 54L2.3625 38.1797ZM4.72289 76.1484C10.1292 88.1866 19.8134 97.8708 31.8516 103.277V76.1484H4.72289ZM69.8203 105.635L54 84.5796L38.1713 105.65C38.1734 105.652 38.1776 105.652 38.1797 105.652C43.181 107.179 48.4924 108 54 108C59.5076 108 64.819 107.179 69.8203 105.652C69.8245 105.652 69.8266 105.652 69.8309 105.65L69.8203 105.635ZM76.1484 76.1484V103.277C88.1866 97.8708 97.8708 88.1866 103.277 76.1484H76.1484ZM76.1484 4.72289V31.8516H103.277C97.8708 19.8134 88.1866 10.1292 76.1484 4.72289ZM33.7036 38.1797H12.8988L29.7422 50.8359H46.3598L33.7036 38.1797ZM57.1641 29.7422V46.3598L69.8203 33.7036V12.8988L57.1641 29.7422ZM74.2964 38.1797L61.6402 50.8359H78.2578L95.1012 38.1797H74.2964ZM29.7422 57.1641L12.8967 69.8203H33.7036L46.3598 57.1641H29.7422ZM38.1797 74.2964V95.1012L50.8359 78.2578V61.6402L38.1797 74.2964ZM57.1641 61.638V78.2578L69.8203 95.1012V74.2943L57.1641 61.638ZM78.2578 57.1641H61.638L74.2943 69.8203H95.1012L78.2578 57.1641ZM38.1797 12.8967V33.7036L50.8359 46.3598V29.7422L38.1797 12.8967ZM69.8203 2.34773C64.819 0.820547 59.5076 0 54 0C48.4924 0 43.181 0.820547 38.1797 2.34773C38.1755 2.34773 38.1734 2.34773 38.1691 2.34984L54 23.4204L69.8309 2.34984C69.8266 2.34773 69.8245 2.34773 69.8203 2.34773ZM105.652 38.1797C105.652 38.1755 105.652 38.1734 105.65 38.1691L84.5796 54L105.65 69.8288C105.652 69.8266 105.652 69.8224 105.652 69.8203C107.179 64.819 108 59.5076 108 54C108 48.4924 107.179 43.181 105.652 38.1797ZM4.72289 31.8516H31.8516V4.72289C19.8134 10.1292 10.1292 19.8134 4.72289 31.8516Z" fill="white"/>
<path d="M69.8315 2.35001L69.8203 2.36567V2.34778C69.8248 2.34778 69.827 2.34778 69.8315 2.35001Z" fill="black"/>
<path d="M76.1484 4.47827V4.72296C76.102 4.70187 76.0556 4.68077 76.0092 4.66179L76.1484 4.47827Z" fill="black"/>
<path d="M103.524 31.8516L103.338 31.9908C103.319 31.9444 103.298 31.898 103.277 31.8516H103.524Z" fill="black"/>
<path d="M105.653 38.1802H105.637L105.651 38.1692C105.653 38.1736 105.653 38.1758 105.653 38.1802Z" fill="black"/>
<path d="M69.8203 105.635L69.8315 105.651C69.827 105.653 69.8248 105.653 69.8203 105.653V105.635Z" fill="black"/>
<path d="M76.0092 103.338C76.0556 103.319 76.102 103.298 76.1484 103.277V103.524L76.0092 103.338Z" fill="black"/>
<path d="M103.277 76.1485C103.298 76.1021 103.319 76.0557 103.338 76.0093L103.524 76.1485H103.277Z" fill="black"/>
<path d="M105.653 69.8203C105.653 69.8225 105.653 69.8269 105.651 69.8291L105.637 69.8203H105.653Z" fill="black"/>
<path d="M2.34773 69.8203H2.36319L2.34994 69.8313C2.34773 69.8269 2.34773 69.8247 2.34773 69.8203Z" fill="black"/>
<path d="M4.65961 76.0093L4.72289 76.1485H4.47398L4.65961 76.0093Z" fill="black"/>
<path d="M31.8516 103.277C31.898 103.298 31.9444 103.319 31.9908 103.338L31.8516 103.524V103.277Z" fill="black"/>
<path d="M38.1801 105.637V105.653C38.1779 105.653 38.1735 105.653 38.1712 105.651L38.1801 105.637Z" fill="black"/>
<path d="M2.34994 38.1713L2.36319 38.1801H2.34773C2.34773 38.1779 2.34773 38.1735 2.34994 38.1713Z" fill="black"/>
<path d="M4.72288 31.8516C4.70179 31.898 4.6807 31.9444 4.66171 31.9908L4.4782 31.8516H4.72288Z" fill="black"/>
<path d="M31.9908 4.65971C31.9444 4.68081 31.898 4.7019 31.8516 4.72299V4.4762L31.9908 4.65971Z" fill="black"/>
<path d="M38.1803 2.34778V2.36567L38.1691 2.35001C38.1736 2.34778 38.1758 2.34778 38.1803 2.34778Z" fill="black"/>
</g>
<path d="M18.33 157.3C16.71 157.3 15.14 157.07 13.62 156.61C12.12 156.15 10.93 155.54 10.05 154.78L11.4 151.75C12.26 152.43 13.31 152.99 14.55 153.43C15.81 153.85 17.07 154.06 18.33 154.06C19.89 154.06 21.05 153.81 21.81 153.31C22.59 152.81 22.98 152.15 22.98 151.33C22.98 150.73 22.76 150.24 22.32 149.86C21.9 149.46 21.36 149.15 20.7 148.93C20.04 148.71 19.14 148.46 18 148.18C16.4 147.8 15.1 147.42 14.1 147.04C13.12 146.66 12.27 146.07 11.55 145.27C10.85 144.45 10.5 143.35 10.5 141.97C10.5 140.81 10.81 139.76 11.43 138.82C12.07 137.86 13.02 137.1 14.28 136.54C15.56 135.98 17.12 135.7 18.96 135.7C20.24 135.7 21.5 135.86 22.74 136.18C23.98 136.5 25.05 136.96 25.95 137.56L24.72 140.59C23.8 140.05 22.84 139.64 21.84 139.36C20.84 139.08 19.87 138.94 18.93 138.94C17.39 138.94 16.24 139.2 15.48 139.72C14.74 140.24 14.37 140.93 14.37 141.79C14.37 142.39 14.58 142.88 15 143.26C15.44 143.64 15.99 143.94 16.65 144.16C17.31 144.38 18.21 144.63 19.35 144.91C20.91 145.27 22.19 145.65 23.19 146.05C24.19 146.43 25.04 147.02 25.74 147.82C26.46 148.62 26.82 149.7 26.82 151.06C26.82 152.22 26.5 153.27 25.86 154.21C25.24 155.15 24.29 155.9 23.01 156.46C21.73 157.02 20.17 157.3 18.33 157.3ZM36.4472 140.8C38.8072 140.8 40.6072 141.37 41.8472 142.51C43.1072 143.63 43.7372 145.33 43.7372 147.61V157H40.1972V155.05C39.7372 155.75 39.0772 156.29 38.2172 156.67C37.3772 157.03 36.3572 157.21 35.1572 157.21C33.9572 157.21 32.9072 157.01 32.0072 156.61C31.1072 156.19 30.4072 155.62 29.9072 154.9C29.4272 154.16 29.1872 153.33 29.1872 152.41C29.1872 150.97 29.7172 149.82 30.7772 148.96C31.8572 148.08 33.5472 147.64 35.8472 147.64H39.9872V147.4C39.9872 146.28 39.6472 145.42 38.9672 144.82C38.3072 144.22 37.3172 143.92 35.9972 143.92C35.0972 143.92 34.2072 144.06 33.3272 144.34C32.4672 144.62 31.7372 145.01 31.1372 145.51L29.6672 142.78C30.5072 142.14 31.5172 141.65 32.6972 141.31C33.8772 140.97 35.1272 140.8 36.4472 140.8ZM35.9372 154.48C36.8772 154.48 37.7072 154.27 38.4272 153.85C39.1672 153.41 39.6872 152.79 39.9872 151.99V150.13H36.1172C33.9572 150.13 32.8772 150.84 32.8772 152.26C32.8772 152.94 33.1472 153.48 33.6872 153.88C34.2272 154.28 34.9772 154.48 35.9372 154.48ZM55.0598 137.56C53.4798 137.56 52.6898 138.42 52.6898 140.14V141.1H57.0998V144.1H52.8098V157H49.0598V144.1H46.4198V141.1H49.0598V140.08C49.0598 138.36 49.5598 137.01 50.5598 136.03C51.5598 135.03 52.9698 134.53 54.7898 134.53C56.2298 134.53 57.3598 134.82 58.1798 135.4L57.1298 138.22C56.4898 137.78 55.7998 137.56 55.0598 137.56ZM62.0198 140.98H65.7698V157H62.0198V140.98ZM63.9098 138.34C63.2298 138.34 62.6598 138.13 62.1998 137.71C61.7398 137.27 61.5098 136.73 61.5098 136.09C61.5098 135.45 61.7398 134.92 62.1998 134.5C62.6598 134.06 63.2298 133.84 63.9098 133.84C64.5898 133.84 65.1598 134.05 65.6198 134.47C66.0798 134.87 66.3098 135.38 66.3098 136C66.3098 136.66 66.0798 137.22 65.6198 137.68C65.1798 138.12 64.6098 138.34 63.9098 138.34ZM74.2683 143.32C75.3483 141.64 77.2483 140.8 79.9683 140.8V144.37C79.6483 144.31 79.3583 144.28 79.0983 144.28C77.6383 144.28 76.4983 144.71 75.6783 145.57C74.8583 146.41 74.4483 147.63 74.4483 149.23V157H70.6983V140.98H74.2683V143.32ZM89.1816 140.8C91.5416 140.8 93.3416 141.37 94.5816 142.51C95.8416 143.63 96.4716 145.33 96.4716 147.61V157H92.9316V155.05C92.4716 155.75 91.8116 156.29 90.9516 156.67C90.1116 157.03 89.0916 157.21 87.8916 157.21C86.6916 157.21 85.6416 157.01 84.7416 156.61C83.8416 156.19 83.1416 155.62 82.6416 154.9C82.1616 154.16 81.9216 153.33 81.9216 152.41C81.9216 150.97 82.4516 149.82 83.5116 148.96C84.5916 148.08 86.2816 147.64 88.5816 147.64H92.7216V147.4C92.7216 146.28 92.3816 145.42 91.7016 144.82C91.0416 144.22 90.0516 143.92 88.7316 143.92C87.8316 143.92 86.9416 144.06 86.0616 144.34C85.2016 144.62 84.4716 145.01 83.8716 145.51L82.4016 142.78C83.2416 142.14 84.2516 141.65 85.4316 141.31C86.6116 140.97 87.8616 140.8 89.1816 140.8ZM88.6716 154.48C89.6116 154.48 90.4416 154.27 91.1616 153.85C91.9016 153.41 92.4216 152.79 92.7216 151.99V150.13H88.8516C86.6916 150.13 85.6116 150.84 85.6116 152.26C85.6116 152.94 85.8816 153.48 86.4216 153.88C86.9616 154.28 87.7116 154.48 88.6716 154.48Z" fill="white"/>
<defs>
<clipPath id="clip0">
<rect width="108" height="108" fill="white"/>
</clipPath>
</defs>
</svg>
