<svg width="82" height="82" viewBox="0 0 82 82" fill="none" xmlns="http://www.w3.org/2000/svg">
<path d="M36.4535 23.7627V37.9772C36.4535 44.4914 31.1704 49.7743 24.6543 49.7743C22.9089 49.7743 21.2537 49.3952 19.7634 48.7158V48.7139C16.1583 47.0699 13.525 43.6636 12.9677 39.5948C12.4441 39.4108 11.9523 39.1106 11.5319 38.6902C10.0455 37.2056 10.0455 34.796 11.5319 33.3115C13.0164 31.8232 15.428 31.8232 16.9143 33.3115L17.9053 27.6306L18.581 23.7627H36.4533H36.4535Z" fill="#FCD2BE"/>
<path d="M19.7636 48.714C16.1585 47.07 13.5252 43.6637 12.9678 39.5949C12.4443 39.4109 11.9525 39.1107 11.532 38.6903C10.0456 37.2057 10.0456 34.7961 11.532 33.3116C13.0165 31.8233 15.4282 31.8233 16.9144 33.3116L17.9055 27.6307L21.0115 28.2613C19.7053 30.519 14.1897 38.7598 19.7636 48.714Z" fill="#FAB998"/>
<path d="M41.9691 18.0105C41.9691 23.6727 37.3786 28.2613 31.7183 28.2613H21.0115V29.2128C21.0115 31.4763 19.176 33.3097 16.9128 33.3097C15.8167 32.2136 14.216 31.9265 12.8572 32.4483V28.2613C12.8572 22.6009 17.4478 18.0105 23.108 18.0105C23.108 18.0105 41.9691 18.0105 41.9691 18.0105Z" fill="#F9CE55"/>
<path d="M31.4742 18.0105H23.108C17.4476 18.0105 12.8572 22.6011 12.8572 28.2613V32.4483C14.216 31.9265 15.8167 32.2136 16.9128 33.3097C19.1763 33.3097 21.0115 31.4761 21.0115 29.2128V28.2613H21.2234C21.2234 22.6009 25.814 18.0105 31.4742 18.0105Z" fill="#E2A11E"/>
<path d="M33.7997 78.1734C33.7997 78.1734 26.5667 81.7898 19.2437 80.3747C16.5036 79.8475 13.7505 78.6143 11.3596 76.2235C11.3596 76.2235 13.6511 60.8734 17.9452 51.9026C18.5158 50.7109 19.122 49.6318 19.7638 48.7158L22.4344 48.9223L27.8319 49.3408C27.8319 50.0914 27.9276 51.5608 28.1249 53.4771C28.7927 60.0307 30.628 71.8318 33.7997 78.1734Z" fill="#EF4A6E"/>
<path d="M19.2437 80.3749C16.5036 79.8477 13.7505 78.6145 11.3596 76.2237C11.3596 76.2237 14.3005 56.5216 19.7636 48.7162L22.4342 48.9226L23.2074 49.6864C21.2087 53.7906 16.528 69.6736 19.2437 80.3749Z" fill="#D8254F"/>
<path d="M60.8925 37.6385H69.9183C75.9171 37.6385 80.7798 32.7756 80.7798 26.7771V12.159C80.7798 6.16015 75.9168 1.29749 69.9183 1.29749H60.8925C54.8937 1.29749 50.0311 6.16047 50.0311 12.159V26.7771C50.0309 32.7757 54.8939 37.6385 60.8925 37.6385Z" fill="#C7F3FF"/>
<path d="M57.0802 12.1223V21.9021C57.0802 26.3839 60.7149 30.0187 65.198 30.0187C66.3989 30.0187 67.5377 29.7579 68.5629 29.2904V29.2891C71.0434 28.1581 72.8549 25.8144 73.2385 23.0152C73.5987 22.8887 73.9371 22.6821 74.2262 22.3928C75.2489 21.3713 75.2489 19.7136 74.2262 18.6921C73.2047 17.668 71.5456 17.668 70.5229 18.6921L69.8413 14.7835L69.3766 12.1223H57.0802Z" fill="#FCD2BE"/>
<path d="M68.563 29.2892C71.0435 28.1582 72.8551 25.8145 73.2386 23.0153C73.5988 22.8888 73.9372 22.6822 74.2263 22.3929C75.2491 21.3714 75.2491 19.7137 74.2263 18.6922C73.2048 17.6681 71.5458 17.6681 70.523 18.6922L69.8414 14.7836L67.7044 15.2174C68.6031 16.7708 72.3978 22.4406 68.563 29.2892Z" fill="#FAB998"/>
<path d="M73.2715 14.7914V18.0827C72.3458 17.7445 71.2676 17.9485 70.5237 18.6921V16.7283C69.9852 16.7283 69.5216 16.6522 69.1201 16.5191C66.7301 15.7368 66.5944 13.0109 66.5944 13.0109C64.0055 15.5985 57.0807 14.7914 57.0807 14.7914C57.0807 12.963 57.8219 11.3076 59.0201 10.1094C60.2172 8.91235 61.8725 8.17114 63.7009 8.17114H66.6514C70.307 8.1713 73.2715 11.1347 73.2715 14.7914Z" fill="#50515B"/>
<path d="M73.2715 14.7914V18.0828C72.3458 17.7445 71.2676 17.9486 70.5237 18.6922V16.7283C69.9852 16.7283 69.5216 16.6523 69.1201 16.5192C69.8251 12.7049 68.1064 8.17151 64.8785 8.17151H66.6514C70.307 8.17135 73.2715 11.1347 73.2715 14.7914Z" fill="#393A42"/>
<path d="M44.8242 37.7843C46.5314 37.7843 47.9154 36.4003 47.9154 34.6931C47.9154 32.9859 46.5314 31.6019 44.8242 31.6019C43.117 31.6019 41.733 32.9859 41.733 34.6931C41.733 36.4003 43.117 37.7843 44.8242 37.7843Z" fill="#C7F3FF"/>
<path d="M27.6044 35.2203V33.2688C27.6044 32.5949 27.0581 32.0486 26.3842 32.0486C25.7102 32.0486 25.1639 32.5949 25.1639 33.2688V35.2203C25.1639 35.8943 25.7102 36.4406 26.3842 36.4406C27.0581 36.4406 27.6044 35.8941 27.6044 35.2203Z" fill="black"/>
<path d="M30.2373 33.2689V35.2204C30.2373 35.8944 30.7836 36.4407 31.4576 36.4407C32.1315 36.4407 32.6778 35.8944 32.6778 35.2204V33.2689C32.6778 32.595 32.1315 32.0487 31.4576 32.0487C30.7836 32.0487 30.2373 32.595 30.2373 33.2689Z" fill="black"/>
<path d="M24.3239 40.6895C23.7713 40.3037 23.0107 40.4384 22.6248 40.9909C22.2389 41.5433 22.3737 42.3039 22.9262 42.69C24.8647 44.0445 27.1812 44.2318 29.6247 43.2319C29.6452 43.2234 29.6653 43.2146 29.6851 43.2052C30.2673 42.9299 30.5387 42.2436 30.2918 41.6404C30.0367 41.0166 29.3241 40.718 28.7005 40.9732C27.039 41.6531 25.5666 41.5575 24.3239 40.6895Z" fill="black"/>
<path d="M11.8713 40.4438C13.0358 46.5054 18.4129 50.9948 24.6545 50.9948C31.8335 50.9948 37.6739 45.1551 37.6739 37.9774V30.8549C37.6739 30.181 37.1276 29.6347 36.4536 29.6347C35.7797 29.6347 35.2334 30.181 35.2334 30.8549V37.9774C35.2334 43.8095 30.4878 48.5544 24.6545 48.5544C19.3943 48.5544 14.8901 44.6316 14.1769 39.4295C14.1147 38.9761 13.804 38.5958 13.3723 38.4439C13.0029 38.3142 12.6741 38.107 12.3945 37.8272C11.9063 37.3397 11.6376 36.6912 11.6376 36.0011C11.6376 35.311 11.9063 34.6625 12.395 34.1745C12.6568 33.9126 12.9586 33.7155 13.2947 33.5875C14.2472 33.2216 15.3289 33.4516 16.0501 34.1727C16.0563 34.179 16.0643 34.1867 16.0706 34.1928C16.3206 34.4324 16.6479 34.5462 16.9719 34.5302C19.7875 34.4999 22.0852 32.2704 22.2252 29.4818H31.7188C38.0435 29.4818 43.1892 24.3363 43.1892 18.0114C43.1892 17.3374 42.6429 16.7911 41.9689 16.7911H23.1082C16.7834 16.7911 11.6378 21.9366 11.6378 28.2615V29.2162C11.6378 29.8902 12.1841 30.4365 12.858 30.4365C13.5319 30.4365 14.0782 29.8902 14.0782 29.2162V28.2615C14.0782 23.2824 18.1291 19.2316 23.1082 19.2316H40.6662C40.069 23.6359 36.2839 27.0413 31.7183 27.0413H21.0114C20.3374 27.0413 19.7912 27.5876 19.7912 28.2615V29.2125C19.7912 30.6547 18.7247 31.8524 17.3392 32.0587C15.9597 30.9679 14.0883 30.6688 12.4224 31.3083C11.7657 31.5587 11.1759 31.9424 10.6698 32.4483C9.72005 33.3968 9.19714 34.6585 9.19714 36.0011C9.19714 37.3437 9.72021 38.6054 10.6693 39.5532C11.0287 39.9124 11.431 40.2103 11.8713 40.4438Z" fill="black"/>
<path d="M25.872 79.2588C20.4492 80.0296 16.0094 78.8609 12.6644 75.7845C13.1392 72.8685 15.3239 60.3421 18.9516 52.6302C19.2384 52.0205 18.9766 51.2936 18.3669 51.0067C17.7572 50.7199 17.0302 50.9817 16.7434 51.5914C16.0669 53.0296 15.4416 54.6123 14.8675 56.2594C13.6636 56.5508 10.8698 57.2792 8.03696 58.3859C2.62896 60.4987 0 62.8157 0 65.4691C0 68.3604 2.75805 70.0547 5.19131 71.5493C8.59655 73.6411 9.87668 74.7009 8.80331 76.7909C8.49549 77.3904 8.73188 78.126 9.33134 78.4338C9.5096 78.5254 9.70018 78.5688 9.88757 78.5688C10.3306 78.5688 10.7579 78.3268 10.9741 77.9056C11.0171 77.8217 11.0554 77.7382 11.0942 77.6548C14.2081 80.4745 18.2032 81.923 22.8151 81.923C23.9144 81.923 25.0496 81.8406 26.2153 81.6749C26.8825 81.5801 27.3465 80.9623 27.2517 80.2951C27.1569 79.6279 26.5405 79.1647 25.872 79.2588ZM6.46855 69.47C4.39709 68.1974 2.44046 66.9954 2.44046 65.4691C2.44046 64.7859 3.07003 62.9509 8.90132 60.6683C10.749 59.945 12.6147 59.3835 13.9701 59.0132C12.3958 64.1674 11.3006 69.5145 10.6984 72.8157C10.643 72.7399 10.5876 72.664 10.5271 72.5889C9.5285 71.3496 7.97306 70.3941 6.46855 69.47Z" fill="black"/>
<path d="M50.2836 55.72C49.6044 55.1115 48.9257 54.697 48.252 54.4749L48.6798 53.0145C48.8691 52.3677 48.4984 51.6898 47.8516 51.5003C47.2048 51.3109 46.527 51.6816 46.3375 52.3285L45.6742 54.5937C44.5109 55.1146 43.5172 56.2861 42.6541 58.1539C40.4486 62.9281 38.0046 65.474 35.781 65.3215C33.5513 65.1692 31.2641 62.2997 29.954 58.0105C29.934 57.9452 29.9079 57.8835 29.8786 57.8241C29.6606 56.2562 29.4792 54.7462 29.3366 53.3479C29.2682 52.6775 28.6689 52.1892 27.999 52.2577C27.3286 52.3261 26.8404 52.9249 26.9088 53.5953C27.1052 55.5204 27.6849 60.597 28.8273 66.1473C29.8035 70.8898 30.9246 74.7195 32.1659 77.5573C31.6269 77.7744 30.9086 78.0421 30.0578 78.3068C29.4141 78.507 29.0547 79.1909 29.2549 79.8344C29.4177 80.3573 29.8996 80.6926 30.4196 80.6926C30.5397 80.6926 30.6618 80.6747 30.7822 80.6374C32.922 79.9719 34.2883 79.2937 34.3453 79.265C34.6347 79.1202 34.855 78.8665 34.9575 78.5595C35.0598 78.2525 35.0359 77.9173 34.8913 77.6279C33.3751 74.5957 32.1222 70.0889 31.1642 65.3862C32.4949 66.8159 34.0137 67.6471 35.6151 67.7563C35.7419 67.765 35.8683 67.7693 35.9945 67.7693C39.2505 67.7692 42.2348 64.8814 44.8697 59.1774C45.5332 57.7416 46.2555 56.8774 46.9037 56.7435C47.4847 56.6236 48.1771 57.1095 48.6555 57.5379C49.1576 57.9875 49.9289 57.9452 50.3786 57.4433C50.8281 56.9412 50.7854 56.1697 50.2836 55.72Z" fill="black"/>
<path d="M80.7798 14.4006C81.4537 14.4006 82 13.8543 82 13.1804V12.1586C82 5.49675 76.5802 0.0769043 69.9183 0.0769043H60.8925C54.2307 0.0769043 48.8108 5.49675 48.8108 12.1586V26.7767C48.8108 33.4386 54.2307 38.8584 60.8925 38.8584H69.9183C76.5802 38.8584 82 33.4386 82 26.7767V17.085C82 16.4111 81.4537 15.8648 80.7798 15.8648C80.1058 15.8648 79.5595 16.4111 79.5595 17.085V26.7767C79.5595 32.0929 75.2345 36.418 69.9183 36.418H60.8925C55.5763 36.418 51.2513 32.0929 51.2513 26.7767V12.1588C51.2513 6.84255 55.5763 2.51753 60.8925 2.51753H69.9183C75.2345 2.51753 79.5595 6.84255 79.5595 12.1588V13.1806C79.5595 13.8545 80.1058 14.4006 80.7798 14.4006Z" fill="black"/>
<path d="M66.0423 20.0053V18.6627C66.0423 17.9888 65.496 17.4425 64.8221 17.4425C64.1482 17.4425 63.6019 17.9888 63.6019 18.6627V20.0053C63.6019 20.6793 64.1482 21.2256 64.8221 21.2256C65.496 21.2256 66.0423 20.6793 66.0423 20.0053Z" fill="black"/>
<path d="M61.7383 20.0053V18.6627C61.7383 17.9888 61.192 17.4425 60.5181 17.4425C59.8441 17.4425 59.2979 17.9888 59.2979 18.6627V20.0053C59.2979 20.6793 59.8441 21.2256 60.5181 21.2256C61.1919 21.2256 61.7383 20.6793 61.7383 20.0053Z" fill="black"/>
<path d="M66.7485 26.5639C67.1368 26.0406 67.0435 25.3084 66.5473 24.8977C66.5304 24.8837 66.5132 24.87 66.4953 24.8569C64.9272 23.694 63.2265 23.4076 61.5765 24.0288C60.9458 24.2662 60.627 24.9701 60.8647 25.6007C61.1021 26.2314 61.806 26.5502 62.4366 26.3126C63.2958 25.989 64.1478 26.154 65.0417 26.817C65.5829 27.2186 66.347 27.1052 66.7485 26.5639Z" fill="black"/>
<path d="M57.0811 17.3545C56.4072 17.3545 55.8609 17.9008 55.8609 18.5748V21.9017C55.8609 27.0504 60.0495 31.2389 65.1982 31.2389C69.6143 31.2389 73.4273 28.1052 74.3316 23.846C74.6059 23.6834 74.8591 23.4864 75.0891 23.2566C75.8148 22.5319 76.2144 21.5681 76.2144 20.5426C76.2144 19.5171 75.8148 18.5531 75.0902 17.8297C74.3655 17.104 73.4015 16.7045 72.376 16.7045C72.1622 16.7045 71.9513 16.7219 71.7444 16.7559V16.7285C71.7444 16.0545 71.1981 15.5082 70.5242 15.5082C68.1032 15.5082 67.8411 13.3695 67.8135 12.9499C67.7897 12.468 67.4839 12.0453 67.0337 11.8719C66.5832 11.6983 66.0731 11.8064 65.7321 12.1477C64.2702 13.6096 60.6392 13.7723 58.4186 13.6709C58.9359 11.2295 61.1081 9.39188 63.7013 9.39188H66.6519C69.6294 9.39188 72.0516 11.8142 72.0516 14.7915C72.0516 15.4655 72.5979 16.0118 73.2718 16.0118C73.9457 16.0118 74.492 15.4655 74.492 14.7915C74.492 10.4684 70.9748 6.95142 66.6519 6.95142H63.7013C59.3784 6.95142 55.8612 10.4686 55.8612 14.7915C55.8612 15.4109 56.3252 15.9319 56.9402 16.0036C57.0151 16.0124 58.8028 16.2163 60.9398 16.0895C62.9497 15.9703 64.5905 15.6029 65.8444 14.9932C66.3824 16.2233 67.4384 17.4551 69.3038 17.832V18.6918C69.3038 19.1853 69.601 19.6302 70.057 19.8192C70.5125 20.0078 71.0378 19.9037 71.3868 19.5548C71.6512 19.2903 72.0024 19.1448 72.3757 19.1448C72.7489 19.1448 73.0998 19.2902 73.3644 19.5551C73.6283 19.8187 73.7737 20.1693 73.7737 20.5423C73.7737 20.9153 73.6283 21.2662 73.3639 21.5301C73.2129 21.6811 73.0353 21.7931 72.836 21.8626C72.4034 22.014 72.0921 22.3948 72.0296 22.8488C71.5647 26.2405 68.6278 28.7983 65.198 28.7983C61.3951 28.7983 58.3012 25.7046 58.3012 21.9015V18.5746C58.3014 17.9008 57.7551 17.3545 57.0811 17.3545Z" fill="black"/>
<path d="M40.5135 34.6931C40.5135 37.0705 42.4475 39.0045 44.8249 39.0045C47.2022 39.0045 49.1363 37.0705 49.1363 34.6931C49.1363 32.3158 47.2022 30.3817 44.8249 30.3817C42.4475 30.3817 40.5135 32.3159 40.5135 34.6931ZM44.8249 32.8222C45.8566 32.8222 46.6958 33.6616 46.6958 34.6931C46.6958 35.7247 45.8564 36.5641 44.8249 36.5641C43.7933 36.5641 42.9539 35.7247 42.9539 34.6931C42.9539 33.6616 43.7931 32.8222 44.8249 32.8222Z" fill="black"/>
<path d="M41.5275 39.5475C41.2652 39.1495 40.7682 38.94 40.2996 39.0241C39.7703 39.1189 39.3488 39.568 39.2988 40.1058C39.253 40.5999 39.5155 41.0865 39.9591 41.3115C40.4186 41.5448 40.9851 41.4615 41.3576 41.1057C41.7827 40.7002 41.8491 40.036 41.5275 39.5475Z" fill="black"/>
</svg>
